# xmcd CD database file
#
# Track frame offsets:
#	150
#	11809
#	26049
#	46577
#	57887
#	71376
#	82908
#	97241
#	113670
#	129229
#	150301
#	167410
#	179362
#	190683
#	204158
#	223102
#
# Disc length: 3157 seconds
#
# Revision: 0
# Processed by: cddbd v1.5.1PL0 Copyright (c) Steve Scherf et al.
# Submitted via: CDex 1.50
#
DISCID=c40c5310
DTITLE=Havana club - Musica de Cuba
DYEAR=2005
DGENRE=Salsa
TTITLE0=El Aguacero
TTITLE1=Flechazo de Amor
TTITLE2=Amarrao con P
TTITLE3=Ron Havana Club
TTITLE4=Cuanto Te Quiero
TTITLE5=Y Me Voy De Parranda
TTITLE6=Inolvidable
TTITLE7=El Carretero
TTITLE8=Mentiras
TTITLE9=Floridita
TTITLE10=Por las Calles de La Habana
TTITLE11=Cada Vez
TTITLE12=Que Nadie Se Interponga
TTITLE13=Valeria
TTITLE14=La Ingrata
TTITLE15=La ultima Noche
EXTD=YEAR: 2005
EXTT0=
EXTT1=
EXTT2=
EXTT3=
EXTT4=
EXTT5=
EXTT6=
EXTT7=
EXTT8=
EXTT9=
EXTT10=
EXTT11=
EXTT12=
EXTT13=
EXTT14=
EXTT15=
PLAYORDER=
